<?xml version="1.0" encoding="utf-8"?>
<!-- Generator: Adobe Illustrator 16.0.0, SVG Export Plug-In . SVG Version: 6.00 Build 0)  -->
<!DOCTYPE svg PUBLIC "-//W3C//DTD SVG 1.1 Tiny//EN" "http://www.w3.org/Graphics/SVG/1.1/DTD/svg11-tiny.dtd">
<svg version="1.1" baseProfile="tiny" id="Layer_1" xmlns="http://www.w3.org/2000/svg" xmlns:xlink="http://www.w3.org/1999/xlink"
	 x="0px" y="0px" width="140px" height="141px" viewBox="0 0 140 141" xml:space="preserve">
<g>
	<path fill="#E20613" d="M58.115,45.532c-1-0.879-2.609-1.41-4.201-1.415c-3.814-0.009-6.921,2.998-6.931,6.877
		c-0.013,3.815,3.117,6.834,6.931,6.847c2.143,0.011,3.998-0.856,5.272-2.39V51.67c-0.678,1.177-2.044,2.676-3.276,3.195
		c-0.621,0.255-1.258,0.417-1.996,0.417c-2.381,0-4.34-1.847-4.34-4.288c0-2.245,1.804-4.327,4.34-4.316
		c1.188,0.004,2.255,0.494,3.048,1.262c0.814,0.796,2.087,2.449,2.694,3.104c1.548,1.666,3.778,2.709,6.234,2.718
		c4.708,0.014,8.534-3.796,8.534-8.495c0-4.707-3.835-8.614-8.534-8.614c-2.737,0-5.14,1.43-6.704,3.424v5.117
		c1.189-3.248,3.333-5.835,6.704-5.835c3.239,0,5.864,2.67,5.856,5.908c-0.01,3.239-2.617,5.854-5.856,5.845
		c-1.438-0.006-2.782-0.526-3.8-1.393C60.827,48.732,59.426,46.637,58.115,45.532"/>
	<path fill="#E20613" d="M2.181,59.748h18.844v5.247c0,0-0.965-2.065-3.008-2.07H9.295v9.057h9.456v4.799
		c0,0-0.304-1.528-2.586-1.535h-6.87v12.377c-0.003,1.823,1.978,2.91,1.978,2.91H2.3c0,0,1.884-0.958,1.884-2.91V62.974
		C4.189,60.906,2.181,59.748,2.181,59.748"/>
	<path fill="#E20613" d="M49.553,59.761h9.587c0,0-2.147,1.017-2.147,2.679v28.872c0,9.762-9.786,11.359-10.296,11.331
		c0.836-0.534,4.897-3.996,4.915-11.331V62.44C51.615,60.874,49.553,59.761,49.553,59.761"/>
	<path fill="#E20613" d="M60.49,59.757h9.618c0,0-2.137,1.025-2.137,2.723v25.151c0,1.796,2.137,2.92,2.137,2.92H60.49
		c0,0,2.132-1.112,2.132-2.92V62.48C62.622,60.782,60.49,59.757,60.49,59.757"/>
	<path fill="#E20613" d="M72.031,59.752h21.16l-1.796,5.594c0,0-0.535-2.349-2.578-2.349h-4.395v24.627
		c0,1.56,2.066,2.91,2.066,2.91H77.07c0,0,2.042-1.214,2.042-2.91V62.997h-5.303c-1.503,0-3.656,2.816-3.656,2.816L72.031,59.752z"
		/>
	<path fill="#E20613" d="M128.539,59.757h9.259c0,0-1.979,1.053-1.979,2.719v18.636c-0.016,7.569-6.293,9.901-10.639,9.901
		c-4.325,0-11.104-2.359-11.091-9.901V62.476c0-1.666-2.044-2.719-2.044-2.719h9.535c0,0-2.124,1.02-2.124,2.719v18.636
		c0,3.972,2.637,6.572,5.724,6.572c3.084,0,5.438-2.707,5.446-6.572V62.476C130.628,60.81,128.539,59.757,128.539,59.757"/>
	<path fill="#E20613" d="M38.45,59.757h9.435c0,0-2.008,1.095-2.008,2.75v18.586c0,7.609-6.573,10.002-10.974,10.002
		c-4.32,0-11.095-2.428-11.095-10.002l-0.008-18.586c0-1.663-1.928-2.75-1.928-2.75h9.533c0,0-2.202,1.087-2.202,2.75l-0.01,18.586
		c0,3.938,2.623,6.652,5.71,6.671c3.09,0.014,5.568-2.773,5.568-6.671l0.013-18.586C40.485,60.84,38.45,59.757,38.45,59.757"/>
	<path fill="#E20613" d="M109.211,64.679c0,0-1.335-2.338-5.199-2.347c-3.87-0.014-5.975,2.021-5.979,4.653
		c-0.007,2.979,2.231,4.109,5.701,5.773c3.299,1.582,8.262,3.772,8.246,9.278c-0.012,4.942-4.394,9.07-12.249,9.07
		c-2.415-0.009-5.753-0.8-5.753-0.8l-1.796-5.912c1.66,1.618,4.608,3.351,7.643,3.351c3.138,0,6.888-1.937,6.888-5.048
		c0-6.021-13.996-5.015-13.996-15.083c0-3.469,2.411-8.482,10.764-8.482c2.713,0,5.736,0.794,5.736,0.794L109.211,64.679z"/>
	<path fill="#1D1D1B" d="M24.766,106.086h1.589l2.587,9.622h-1.239l-0.688-2.641h-3.073l-0.715,2.641h-1.239L24.766,106.086z
		 M24.186,112.097h2.587l-1.227-4.65h-0.027L24.186,112.097z"/>
	<rect x="29.617" y="106.085" fill="#1D1D1B" width="1.187" height="9.624"/>
	<path fill="#1D1D1B" d="M32.367,106.086h3.113c1.508,0,2.466,0.889,2.466,2.41c0,1.053-0.364,2.158-1.481,2.428v0.026
		c0.835,0.096,1.307,0.782,1.36,1.604l0.082,1.644c0.054,1.065,0.23,1.335,0.512,1.51h-1.43c-0.201-0.203-0.296-0.918-0.323-1.387
		l-0.081-1.497c-0.094-1.32-0.822-1.403-1.428-1.403h-1.604v4.287h-1.186V106.086z M33.553,110.451h1.172
		c0.701,0,1.982,0,1.982-1.859c0-0.943-0.634-1.536-1.74-1.536h-1.415V110.451z"/>
	<path fill="#1D1D1B" d="M48.484,112.406c-0.107,1.819-0.822,3.491-2.924,3.491c-2.735,0-3.099-2.574-3.099-5.001
		c0-2.426,0.444-5,3.099-5c1.968,0,2.789,1.104,2.844,2.992h-1.24c-0.026-1.092-0.377-2.021-1.604-2.021
		c-1.644,0-1.859,1.806-1.859,4.029c0,2.225,0.215,4.03,1.859,4.03c1.442,0,1.644-1.349,1.684-2.521H48.484z"/>
	<path fill="#1D1D1B" d="M55.653,110.896c0,2.427-0.445,5.001-3.099,5.001c-2.654,0-3.1-2.574-3.1-5.001c0-2.426,0.446-5,3.1-5
		C55.208,105.896,55.653,108.471,55.653,110.896 M50.695,110.896c0,2.225,0.215,4.03,1.859,4.03s1.859-1.806,1.859-4.03
		c0-2.224-0.215-4.029-1.859-4.029S50.695,108.673,50.695,110.896"/>
	<polygon fill="#1D1D1B" points="57.083,106.085 58.619,106.085 61.799,114.118 61.826,114.118 61.826,106.085 63.012,106.085 
		63.012,115.709 61.381,115.709 58.296,107.918 58.269,107.918 58.269,115.709 57.083,115.709 	"/>
	<path fill="#1D1D1B" d="M64.697,106.085h2.575c2.992,0,3.37,2.156,3.37,4.812c0,2.427-0.607,4.812-3.249,4.812h-2.696V106.085z
		 M65.882,114.737h1.241c2.048,0,2.277-2.102,2.277-3.827c0-1.86-0.122-3.854-2.277-3.854h-1.241V114.737z"/>
	<rect x="72.07" y="106.085" fill="#1D1D1B" width="1.187" height="9.624"/>
	<polygon fill="#1D1D1B" points="77.745,115.708 76.557,115.708 76.557,107.137 74.145,107.137 74.145,106.085 80.169,106.085 
		80.169,107.137 77.745,107.137 	"/>
	<rect x="81.059" y="106.085" fill="#1D1D1B" width="1.186" height="9.624"/>
	<path fill="#1D1D1B" d="M89.875,110.896c0,2.427-0.445,5.001-3.101,5.001c-2.654,0-3.1-2.574-3.1-5.001c0-2.426,0.445-5,3.1-5
		C89.429,105.896,89.875,108.471,89.875,110.896 M84.914,110.896c0,2.225,0.215,4.03,1.86,4.03c1.645,0,1.86-1.806,1.86-4.03
		c0-2.224-0.216-4.029-1.86-4.029C85.128,106.867,84.914,108.673,84.914,110.896"/>
	<polygon fill="#1D1D1B" points="91.303,106.085 92.839,106.085 96.02,114.118 96.047,114.118 96.047,106.085 97.233,106.085 
		97.233,115.709 95.602,115.709 92.516,107.918 92.489,107.918 92.489,115.709 91.303,115.709 	"/>
	<polygon fill="#1D1D1B" points="98.797,106.085 103.77,106.085 103.77,107.137 99.984,107.137 99.984,110.154 103.555,110.154 
		103.555,111.206 99.984,111.206 99.984,114.657 103.931,114.657 103.931,115.709 98.797,115.709 	"/>
	<path fill="#1D1D1B" d="M105.037,106.086h3.114c1.509,0,2.466,0.889,2.466,2.41c0,1.053-0.363,2.158-1.481,2.428v0.026
		c0.835,0.096,1.307,0.782,1.36,1.604l0.082,1.644c0.054,1.065,0.229,1.335,0.511,1.51h-1.429c-0.202-0.203-0.296-0.918-0.324-1.387
		l-0.079-1.497c-0.096-1.32-0.822-1.403-1.429-1.403h-1.604v4.287h-1.188V106.086z M106.224,110.451h1.172
		c0.701,0,1.981,0,1.981-1.859c0-0.943-0.635-1.536-1.738-1.536h-1.415V110.451z"/>
	<path fill="#1D1D1B" d="M116.116,108.578c0-1.01-0.362-1.712-1.495-1.712c-0.998,0-1.591,0.54-1.591,1.564
		c0,2.708,4.542,1.091,4.542,4.609c0,2.224-1.63,2.856-2.992,2.856c-2.251,0-2.911-1.159-2.911-3.207h1.186
		c0,1.079,0.067,2.237,1.807,2.237c0.943,0,1.672-0.673,1.672-1.698c0-2.722-4.542-1.146-4.542-4.678
		c0-0.89,0.376-2.654,2.816-2.654c1.833,0,2.669,0.916,2.696,2.682H116.116z"/>
</g>
</svg>
